<svg height='100px' width='100px'  fill="#000000" xmlns="http://www.w3.org/2000/svg" xmlns:xlink="http://www.w3.org/1999/xlink" xmlns:a="http://ns.adobe.com/AdobeSVGViewerExtensions/3.0/" version="1.1" x="0px" y="0px" viewBox="0.783 18.739 100 100" enable-background="new 0.783 18.739 100 100" xml:space="preserve"><polygon display="none" points="76.367,17.821 55.743,0 55.743,35.62 76.367,17.821 "></polygon><polygon display="none" points="8.934,38.697 0,38.697 0,55.971 8.934,55.971 8.934,38.697 "></polygon><polygon display="none" points="30.333,25.866 21.376,25.866 21.376,55.971 30.333,55.971 30.333,25.866 "></polygon><polygon display="none" points="41.021,19.462 32.064,19.462 32.064,55.971 41.021,55.971 41.021,19.462 "></polygon><polygon display="none" points="19.645,32.292 10.711,32.292 10.711,55.971 19.645,55.971 19.645,32.292 "></polygon><polygon display="none" points="58.158,21.878 58.158,13.059 42.753,13.059 42.753,55.971 51.709,55.971 51.709,21.878   58.158,21.878 "></polygon><polygon display="none" points="32.726,12.739 32.726,10.164 27.051,11.076 22.995,5.288 16.978,5.288 12.694,12.739 11.531,19.166   14.061,19.622 15.109,13.674 17.183,10.096 17.183,27.325 13.97,30.538 15.793,32.361 19.735,28.396 19.735,20.396 25.593,20.396   25.593,26.709 28.145,26.709 28.145,17.821 22.767,17.821 22.767,9.412 25.912,13.833 32.726,12.739 "></polygon><path display="none" d="M35.537,141.753h0.014v0.015h-0.014v22.257h5.702v10.473h11.291v-10.473H75.38v10.473h11.291v-10.473h5.73  v-52.052H35.537V141.753L35.537,141.753z M87.688,114.668c1.736,0,2.611,0.848,2.611,2.527v23.33H37.611v-23.33  c0-1.68,0.875-2.527,2.611-2.527H87.688L87.688,114.668z M40.223,161.33c-1.736,0-2.611-0.847-2.611-2.526v-15.808h52.688v15.808  c0,1.68-0.875,2.526-2.611,2.526H40.223L40.223,161.33z"></path><path d="M97.988,42.306c-0.56-0.561-1.248-0.846-2.056-0.846c-0.807,0-1.495,0.285-2.068,0.846c-0.56,0.571-0.847,1.263-0.847,2.069  c0,0.169,0.014,0.351,0.04,0.52L80.203,55.37c-0.637-0.131-1.287-0.197-1.965-0.21l14.272-14.897c0.274,0.092,0.572,0.13,0.885,0.13  c0.808,0,1.497-0.287,2.056-0.858c0.572-0.559,0.859-1.25,0.859-2.057c0-0.805-0.287-1.496-0.859-2.067  c-0.559-0.561-1.248-0.845-2.056-0.845c-0.807,0-1.496,0.285-2.068,0.845c-0.56,0.572-0.845,1.263-0.845,2.067  c0,0.379,0.063,0.717,0.182,1.042L61.35,69.107c-1.417-3.576-3.785-6.816-7.129-9.706c-5.79-5.008-12.764-7.521-20.935-7.521  c-8.184,0-15.17,2.513-20.96,7.521c-5.79,5.023-8.678,11.085-8.678,18.176c0,0.884,0.052,1.757,0.144,2.603  c0.338,3.266,1.34,6.283,3.019,9.081c0.689,0.86,1.47,1.68,2.354,2.472c4.047,3.604,8.926,5.399,14.637,5.399  c5.712,0,10.591-1.796,14.637-5.399c4.046-3.604,6.076-7.949,6.076-13.036s-2.03-9.434-6.076-13.038  c-3.109-2.771-6.727-4.462-10.825-5.1c-1.054-0.169-2.146-0.259-3.278-0.271c0.429-0.028,0.858-0.041,1.288-0.041  c0.676,0,1.34,0.026,1.99,0.08c5.191,0.389,9.681,2.354,13.466,5.881c4.268,3.967,6.401,8.768,6.401,14.388  c0,5.609-2.134,10.41-6.401,14.378c-2.537,2.354-5.374,4.021-8.535,4.984c0.819,0.013,1.665-0.016,2.523-0.054  c8.028-0.39,14.754-3.018,20.206-7.884c4.619-4.138,7.168-8.86,7.637-14.182c0-0.092,0-0.168,0-0.261h0.026  c-0.014,0.093-0.014,0.169-0.026,0.261c-0.063,6.973-2.966,12.932-8.69,17.89c-2.018,1.742-4.164,3.188-6.467,4.332h10.317  c5.074-1.263,9.603-3.773,13.584-7.533c4.853-4.567,7.755-9.888,8.704-15.977c1.99-0.43,3.76-1.405,5.283-2.928  c2.119-2.108,3.174-4.659,3.174-7.651c0-2.979-1.055-5.528-3.174-7.649c-0.795-0.794-1.654-1.444-2.577-1.939l11.554-9.395  c0.391,0.197,0.832,0.299,1.313,0.299c0.808,0,1.496-0.285,2.056-0.858c0.572-0.559,0.859-1.25,0.859-2.055  C98.848,43.569,98.561,42.877,97.988,42.306L97.988,42.306z M27.314,73.024c2.095,2.407,3.135,5.322,3.135,8.731  c0,3.395-1.04,6.296-3.135,8.691c-2.095,2.405-4.605,3.604-7.546,3.604s-5.452-1.198-7.546-3.604  c-2.095-2.396-3.136-5.297-3.136-8.691c0-3.409,1.041-6.324,3.136-8.731c2.095-2.381,4.605-3.579,7.546-3.579  S25.22,70.643,27.314,73.024L27.314,73.024z"></path><path d="M27.432,75.223c-1.471-1.795-3.227-2.693-5.295-2.693c-2.069,0-3.838,0.898-5.309,2.693c-1.47,1.809-2.199,4.007-2.199,6.57  c0,2.563,0.729,4.749,2.199,6.545c1.471,1.809,3.24,2.718,5.309,2.718c2.068,0,3.825-0.909,5.295-2.718  c1.47-1.796,2.212-3.982,2.212-6.545C29.644,79.23,28.901,77.032,27.432,75.223L27.432,75.223z M20.848,76.512  c0.911,0,1.692,0.507,2.355,1.521c0.65,1.027,0.976,2.264,0.976,3.707c0,1.444-0.325,2.682-0.976,3.695  c-0.664,1.027-1.445,1.535-2.355,1.535c-0.923,0-1.705-0.508-2.368-1.535c-0.65-1.014-0.976-2.251-0.976-3.695  c0-1.443,0.325-2.68,0.976-3.707C19.143,77.019,19.924,76.512,20.848,76.512L20.848,76.512z"></path></svg>